<mxfile host="65bd71144e">
    <diagram id="pyFOITWGm1L5QSNy7el4" name="Page-1">
        <mxGraphModel dx="942" dy="566" grid="1" gridSize="10" guides="1" tooltips="1" connect="1" arrows="1" fold="1" page="1" pageScale="1" pageWidth="850" pageHeight="1100" background="#ffffff" math="0" shadow="0">
            <root>
                <mxCell id="0"/>
                <mxCell id="1" parent="0"/>
                <mxCell id="4" style="edgeStyle=none;html=1;entryX=0.031;entryY=0.481;entryDx=0;entryDy=0;entryPerimeter=0;fontColor=#1A1A1A;strokeColor=#4D4D4D;" parent="1" source="2" target="3" edge="1">
                    <mxGeometry relative="1" as="geometry">
                        <Array as="points"/>
                    </mxGeometry>
                </mxCell>
                <mxCell id="2" value="BlobStorage" style="verticalLabelPosition=bottom;html=1;verticalAlign=top;align=center;strokeColor=none;fillColor=#00BEF2;shape=mxgraph.azure.storage_blob;fontColor=#1A1A1A;" parent="1" vertex="1">
                    <mxGeometry x="120" y="168.75" width="50" height="45" as="geometry"/>
                </mxCell>
                <mxCell id="6" value="" style="edgeStyle=none;html=1;strokeColor=#4D4D4D;fontColor=#1A1A1A;startArrow=none;exitX=1.075;exitY=0.5;exitDx=0;exitDy=0;exitPerimeter=0;" parent="1" source="3" target="10" edge="1">
                    <mxGeometry relative="1" as="geometry"/>
                </mxCell>
                <mxCell id="3" value="EventGrid" style="aspect=fixed;html=1;points=[];align=center;image;fontSize=12;image=img/lib/azure2/integration/Event_Grid_Topics.svg;fontColor=#1A1A1A;labelBackgroundColor=none;" parent="1" vertex="1">
                    <mxGeometry x="234" y="166.25" width="55.83" height="50" as="geometry"/>
                </mxCell>
                <mxCell id="7" value="" style="rounded=1;whiteSpace=wrap;html=1;labelBackgroundColor=none;fontColor=#1A1A1A;fillColor=none;strokeColor=#666666;align=left;" parent="1" vertex="1">
                    <mxGeometry x="354" y="120" width="200" height="148.75" as="geometry"/>
                </mxCell>
                <mxCell id="21" value="" style="edgeStyle=none;html=1;strokeColor=#4D4D4D;fontColor=#1A1A1A;" parent="1" source="5" target="20" edge="1">
                    <mxGeometry relative="1" as="geometry"/>
                </mxCell>
                <mxCell id="5" value="Functions" style="aspect=fixed;html=1;points=[];align=center;image;fontSize=12;image=img/lib/azure2/compute/Function_Apps.svg;labelBackgroundColor=none;fontColor=#1A1A1A;" parent="1" vertex="1">
                    <mxGeometry x="592" y="165" width="59.5" height="52.5" as="geometry"/>
                </mxCell>
                <mxCell id="8" value="&lt;span style=&quot;color: rgb(26, 26, 26); font-family: Helvetica; font-size: 12px; font-style: normal; font-variant-ligatures: normal; font-variant-caps: normal; font-weight: 400; letter-spacing: normal; orphans: 2; text-align: left; text-indent: 0px; text-transform: none; widows: 2; word-spacing: 0px; -webkit-text-stroke-width: 0px; text-decoration-thickness: initial; text-decoration-style: initial; text-decoration-color: initial; float: none; display: inline !important;&quot;&gt;仮想ネットワーク&lt;/span&gt;" style="text;whiteSpace=wrap;html=1;fontColor=#1A1A1A;fillColor=none;labelBackgroundColor=none;" parent="1" vertex="1">
                    <mxGeometry x="374" y="128.75" width="110" height="22.5" as="geometry"/>
                </mxCell>
                <mxCell id="13" style="edgeStyle=none;html=1;entryX=0.091;entryY=0.495;entryDx=0;entryDy=0;entryPerimeter=0;strokeColor=#4D4D4D;fontColor=#1A1A1A;" parent="1" source="10" target="5" edge="1">
                    <mxGeometry relative="1" as="geometry"/>
                </mxCell>
                <mxCell id="10" value="Functionsの&lt;br&gt;PrivateEndpoint" style="aspect=fixed;html=1;points=[];align=center;image;fontSize=12;image=img/lib/azure2/networking/Private_Endpoint.svg;labelBackgroundColor=none;strokeColor=#666666;fontColor=#1A1A1A;fillColor=none;" parent="1" vertex="1">
                    <mxGeometry x="427.54999999999995" y="165.38" width="56.45" height="51.75" as="geometry"/>
                </mxCell>
                <mxCell id="14" value="" style="shape=cross;whiteSpace=wrap;html=1;labelBackgroundColor=none;strokeColor=none;fontColor=#1A1A1A;fillColor=#FF0000;size=0.14642868041992188;rotation=-45;shadow=0;" parent="1" vertex="1">
                    <mxGeometry x="296" y="161.75" width="60" height="60" as="geometry"/>
                </mxCell>
                <mxCell id="20" value="CosmosDB" style="aspect=fixed;html=1;points=[];align=center;image;fontSize=12;image=img/lib/azure2/databases/Azure_Cosmos_DB.svg;shadow=0;labelBackgroundColor=none;sketch=0;strokeColor=#666666;fontColor=#1A1A1A;fillColor=#FF0000;" parent="1" vertex="1">
                    <mxGeometry x="720" y="164" width="52.25" height="52.25" as="geometry"/>
                </mxCell>
            </root>
        </mxGraphModel>
    </diagram>
</mxfile>